<?xml version="1.0"?>
<svg xmlns="http://www.w3.org/2000/svg" viewBox="0 0 639.42 88.02">
  <defs>
    <style>.cls-1{fill:#213d81;}.cls-2{fill:#75c9f2;}.cls-3{fill:#29a3de;}.cls-4{fill:#0087c1;}.cls-5{fill:#fff;}</style>
  </defs>
  <g id="Ebene_2" data-name="Ebene 2">
    <g id="Ebene_1-2" data-name="Ebene 1">
      <path class="cls-1" d="M123.79,65c-5.44-5.29-8.2-12.3-8.2-21s2.76-15.77,8.28-21.06,12.7-7.89,21.53-7.89A29.05,29.05,0,0,1,165,22.3a2,2,0,0,1,.13,2.92l-6.25,6.42a2,2,0,0,1-2.66.17,16.71,16.71,0,0,0-10.54-3.57,14.47,14.47,0,0,0-11,4.33A16,16,0,0,0,130.57,44a16,16,0,0,0,4.18,11.44,14.47,14.47,0,0,0,11,4.33,18.53,18.53,0,0,0,11.93-4.07,2,2,0,0,1,2.79.23l5.85,6.78a2,2,0,0,1-.23,2.84A30.26,30.26,0,0,1,145.72,73C136.49,73,129.23,70.27,123.79,65Z"/>
      <path class="cls-1" d="M200.69,73c-9.22,0-16.64-2.6-22.16-7.88S170.25,52.84,170.25,44s2.76-15.85,8.28-21.14S191.47,15,200.69,15s16.65,2.61,22.17,7.89,8.28,12.31,8.28,21.14-2.76,15.85-8.28,21.14S209.92,73,200.69,73Zm0-13.17c4.66,0,8.44-1.42,11.28-4.33s4.18-6.71,4.18-11.52-1.42-8.68-4.18-11.6-6.62-4.25-11.28-4.25-8.44,1.42-11.2,4.25-4.25,6.79-4.25,11.6,1.41,8.68,4.25,11.52S196,59.86,200.69,59.86Z"/>
      <path class="cls-1" d="M289.52,16.4H300a2,2,0,0,1,2,2V69.61a2,2,0,0,1-2,2H289.06a2,2,0,0,1-2-2V39.83L273,56.62a2,2,0,0,1-1.53.72h-.9a2,2,0,0,1-1.53-.71L254.81,39.75V69.61a2,2,0,0,1-2,2H241.9a2,2,0,0,1-2-2V18.4a2,2,0,0,1,2-2h10.45a2,2,0,0,1,1.56.74l17.06,21,17-21A2,2,0,0,1,289.52,16.4Z"/>
      <path class="cls-1" d="M363.43,16.4h10.45a2,2,0,0,1,2,2V69.61a2,2,0,0,1-2,2H363a2,2,0,0,1-2-2V39.83L346.9,56.62a2,2,0,0,1-1.53.72h-.9a2,2,0,0,1-1.53-.71L328.71,39.75V69.61a2,2,0,0,1-2,2h-10.9a2,2,0,0,1-2-2V18.4a2,2,0,0,1,2-2h10.45a2,2,0,0,1,1.56.74l17.06,21,17-21A2,2,0,0,1,363.43,16.4Z"/>
      <path class="cls-1" d="M412.56,72.8c-8.28,0-14.59-2.21-19.09-6.63s-6.7-10.72-6.7-18.85V18.4a2,2,0,0,1,2-2h11a2,2,0,0,1,2,2V47.32c0,7.89,3.87,12.46,10.81,12.46s10.8-4.57,10.8-12.46V18.4a2,2,0,0,1,2-2h11a2,2,0,0,1,2,2V47.32c0,8.13-2.21,14.44-6.7,18.85S420.84,72.8,412.56,72.8Z"/>
      <path class="cls-1" d="M486.65,16.4h10.91a2,2,0,0,1,2,2V69.61a2,2,0,0,1-2,2H487.25a2,2,0,0,1-1.62-.83l-21.8-30.24.32,13.33V69.61a2,2,0,0,1-2,2H451.24a2,2,0,0,1-2-2V18.4a2,2,0,0,1,2-2h10.3a2,2,0,0,1,1.63.84L485,47.64l-.32-13.49V18.4A2,2,0,0,1,486.65,16.4Z"/>
      <path class="cls-1" d="M511.4,69.61V18.4a2,2,0,0,1,2-2h11a2,2,0,0,1,2,2V69.61a2,2,0,0,1-2,2h-11A2,2,0,0,1,511.4,69.61Z"/>
      <path class="cls-1" d="M581.28,18.4v8.78a2,2,0,0,1-2,2H565V69.61a2,2,0,0,1-2,2H552a2,2,0,0,1-2-2V29.18H535.8a2,2,0,0,1-2-2V18.4a2,2,0,0,1,2-2h43.48A2,2,0,0,1,581.28,18.4Z"/>
      <path class="cls-1" d="M639.08,19.51,618.67,50.24V69.61a2,2,0,0,1-2,2h-11a2,2,0,0,1-2-2V50.32L584,19.48a2,2,0,0,1,1.68-3.08h12.65a2,2,0,0,1,1.71,1l11.33,19,11.56-19a2,2,0,0,1,1.71-1h12.81A2,2,0,0,1,639.08,19.51Z"/>
      <path class="cls-2" d="M85,52.3a2.36,2.36,0,0,1,.34,2.62,2.33,2.33,0,0,1-2.19,1.41H68.32l-14.4-7.44L22.33,32.69a21.21,21.21,0,0,1-.19-3.11C22.14,14.84,36.5,2.5,53.92,2.5S85.54,14.84,85.54,29.58a24.13,24.13,0,0,1-6.33,16.05Z"/>
      <path class="cls-1" d="M83.1,58.83H67.71L52.77,51.11,20,34.33l-.18-1.28a24.21,24.21,0,0,1-.22-3.47C19.64,13.27,35,0,53.92,0S88,13.27,88,29.58a26.17,26.17,0,0,1-5.56,16l4.36,5.07a5,5,0,0,1-3.74,8.17Zm-14.18-5H83l-7.09-8.22L77.34,44A21.59,21.59,0,0,0,83,29.58C83,16.26,69.7,5,53.92,5S24.64,16.26,24.64,29.58c0,.55,0,1,0,1.51L55.06,46.67Z"/>
      <path class="cls-3" d="M36.73,28C18,28,2.52,40.86,2.52,56.72a26.1,26.1,0,0,0,7,17.47L3.1,81.48a2.43,2.43,0,0,0,1.85,4H39.16c13.86,0,31.78-11.63,31.78-28.8C70.94,40.86,55.51,28,36.73,28Z"/>
      <path class="cls-1" d="M39.16,88H5A5,5,0,0,1,.47,85.23l0-.11a5,5,0,0,1,.78-5.27l5-5.7A28.38,28.38,0,0,1,0,56.72C0,39.49,16.49,25.47,36.73,25.47s36.71,14,36.71,31.25c0,8.6-4.12,16.69-11.61,22.78C55.27,84.83,46.79,88,39.16,88ZM5.1,83l34.06,0c11.94,0,29.28-10.25,29.28-26.3,0-14.47-14.22-26.25-31.71-26.25S5,42.25,5,56.72a23.68,23.68,0,0,0,6.31,15.79l1.49,1.65Z"/>
      <path class="cls-4" d="M70.94,56.73C70.94,73.9,53,85.52,39.16,85.52H5a2.42,2.42,0,0,1-1.85-4l2.29-2.62H39.16c12.94,0,29.41-10.12,31.55-25.45A24.22,24.22,0,0,1,70.94,56.73Z"/>
      <path class="cls-2" d="M5.41,63.82c0-18.23,17.75-33,39.33-33a47,47,0,0,1,8.47.78A39.24,39.24,0,0,0,36.73,28C18,28,2.52,40.86,2.52,56.72A25.2,25.2,0,0,0,6,69.35,27.59,27.59,0,0,1,5.41,63.82Z"/>
      <path class="cls-1" d="M39.16,88H5A5,5,0,0,1,.47,85.23l0-.11a5,5,0,0,1,.78-5.27l5-5.7A28.38,28.38,0,0,1,0,56.72C0,39.49,16.49,25.47,36.73,25.47s36.71,14,36.71,31.25c0,8.6-4.12,16.69-11.61,22.78C55.27,84.83,46.79,88,39.16,88ZM5.1,83l34.06,0c11.94,0,29.28-10.25,29.28-26.3,0-14.47-14.22-26.25-31.71-26.25S5,42.25,5,56.72a23.68,23.68,0,0,0,6.31,15.79l1.49,1.65Z"/>
      <path class="cls-5" d="M22.14,61.2A4.87,4.87,0,1,1,27,56.33,4.88,4.88,0,0,1,22.14,61.2Z"/>
      <path class="cls-5" d="M36.73,51.47a4.87,4.87,0,1,0,4.86,4.86A4.88,4.88,0,0,0,36.73,51.47Z"/>
      <path class="cls-5" d="M51.32,51.47a4.87,4.87,0,1,0,4.86,4.86A4.88,4.88,0,0,0,51.32,51.47Z"/>
      <path class="cls-1" d="M76.13,26.86a2,2,0,0,1-1.92-1.44,18.07,18.07,0,0,0-7.9-10A2,2,0,0,1,68.45,12a22,22,0,0,1,9.6,12.26,2,2,0,0,1-1.36,2.48A1.81,1.81,0,0,1,76.13,26.86Z"/>
      <path class="cls-1" d="M58.7,12.36a1.61,1.61,0,0,1-.37,0,24.25,24.25,0,0,0-4.43-.4,2,2,0,0,1,0-4,28.71,28.71,0,0,1,5.16.47,2,2,0,0,1-.36,4Z"/>
    </g>
  </g>
</svg>
